<?xml version="1.0" standalone="no"?><!DOCTYPE svg PUBLIC "-//W3C//DTD SVG 1.1//EN" "http://www.w3.org/Graphics/SVG/1.1/DTD/svg11.dtd"><svg t="1646398422793" class="icon" viewBox="0 0 1024 1024" version="1.1" xmlns="http://www.w3.org/2000/svg" p-id="2463" xmlns:xlink="http://www.w3.org/1999/xlink" width="200" height="200"><defs><style type="text/css"></style></defs><path d="M707.631746 794.048813l-87.859486-347.481794 35.275666-147.036888a21.099464 21.099464 0 0 0-3.79131-17.637833 20.769785 20.769785 0 0 0-16.483956-7.912299h-145.553332a20.604945 20.604945 0 0 0-20.110427 25.550132l35.275666 147.036888L416.525081 794.048813a20.275266 20.275266 0 0 0 5.934225 20.275266L548.39673 932.184365a21.264303 21.264303 0 0 0 14.341042 5.769384 20.440106 20.440106 0 0 0 14.176202-5.769384l124.783547-117.860286a20.934624 20.934624 0 0 0 5.934225-20.275266z m-98.903737-478.034726L581.364642 425.962074h-39.231815L515.428818 315.519568zM562.078413 888.501881l-102.200527-96.101464 82.41978-325.063614h40.220853l82.41978 325.063614z" p-id="2464"></path><path d="M951.759135 286.013287a16.483956 16.483956 0 0 0 0-1.648396 20.110426 20.110426 0 0 0-1.153877-2.802272 2.307754 2.307754 0 0 0 0-0.989038l-1.648395-2.142914a16.483956 16.483956 0 0 0-1.483557-2.142914 169.619908 169.619908 0 0 1 0-239.676722 20.769785 20.769785 0 0 0 0-29.506281 20.110426 20.110426 0 0 0-16.154276-7.088101H182.782584A112.58542 112.58542 0 0 0 70.362004 112.437229V911.57942a112.58542 112.58542 0 0 0 112.42058 112.42058h656.88565a112.58542 112.58542 0 0 0 112.58542-112.42058V290.134276a32.967912 32.967912 0 0 0 0-3.95615zM172.068013 981.306554a70.716172 70.716172 0 0 1-60.16644-69.727134v-626.390331a112.090901 112.090901 0 0 0 60.16644 24.561094z m10.714571-711.942063A71.045851 71.045851 0 0 1 111.901573 197.824122V112.437229a71.045851 71.045851 0 0 1 70.881011-70.881011h705.348481a206.21429 206.21429 0 0 0-22.253341 46.814435H192.672958a20.769785 20.769785 0 0 0 0 41.53957h663.808911a220.720172 220.720172 0 0 0 0 51.100263H192.672958a20.934624 20.934624 0 0 0 0 41.704409h673.204766a215.939825 215.939825 0 0 0 22.253341 46.649596H182.782584zM845.107939 310.90406l-142.42138 73.353605-85.057214-73.353605z m-339.404655 0l-84.892374 73.353605-142.58622-73.353605zM911.043764 911.57942a71.045851 71.045851 0 0 1-70.881012 70.881011h-626.39033V324.256065L414.547007 428.599507a21.099464 21.099464 0 0 0 23.242378-2.802273l124.289028-107.475393 124.289029 107.475393a21.099464 21.099464 0 0 0 13.516844 4.945187 21.264303 21.264303 0 0 0 9.560695-2.142914L911.043764 324.256065z" p-id="2465"></path></svg>