<?xml version="1.0" standalone="no"?><!DOCTYPE svg PUBLIC "-//W3C//DTD SVG 1.1//EN" "http://www.w3.org/Graphics/SVG/1.1/DTD/svg11.dtd"><svg t="1646448991948" class="icon" viewBox="0 0 1024 1024" version="1.1" xmlns="http://www.w3.org/2000/svg" p-id="5230" xmlns:xlink="http://www.w3.org/1999/xlink" width="200" height="200"><defs><style type="text/css"></style></defs><path d="M760.832 244.278857c14.08 13.677714 7.405714 48.969143-20.022857 105.892572l-2.816 5.778285-5.339429 10.569143A269.805714 269.805714 0 0 1 786.285714 528.329143c0 63.744-22.363429 117.741714-60.891428 158.244571 3.949714 8.795429 6.034286 18.377143 6.034285 28.233143C731.428571 754.285714 698.221714 786.285714 657.243429 786.285714a75.154286 75.154286 0 0 1-59.245715-28.434285C571.245714 764.507429 542.409143 768 512 768c-30.409143 0-59.245714-3.474286-86.016-10.148571A75.154286 75.154286 0 0 1 366.738286 786.285714C325.796571 786.285714 292.571429 754.285714 292.571429 714.806857c0-9.856 2.084571-19.437714 6.034285-28.251428-38.528-40.484571-60.891429-94.482286-60.891428-158.226286 0-61.714286 20.662857-118.601143 55.497143-164.260572l-3.803429-7.04-2.962286-5.632-5.485714-10.843428a534.857143 534.857143 0 0 1-2.541714-5.229714l-4.662857-10.038858c-19.053714-42.276571-22.784-69.266286-11.154286-80.914285 12.982857-13.001143 45.037714-6.948571 96.182857 18.139428l10.843429 5.467429 5.632 2.925714 11.666285 6.290286 6.034286 3.346286c0.749714 0.420571 1.462857 0.877714 2.121143 1.371428A274.761143 274.761143 0 0 1 512 256c41.874286 0 81.554286 9.325714 117.065143 25.965714l0.182857-0.128 1.828571-1.170285 11.812572-6.564572 11.282286-6.016 5.449142-2.797714 5.302858-2.669714 10.203428-4.937143c44.781714-20.937143 73.325714-25.417143 85.705143-13.403429z m-120.758857 499.803429l-2.523429 1.005714c5.741714 3.474286 12.507429 5.467429 19.693715 5.467429 20.48 0 37.101714-16 37.101714-35.748572l-0.054857-0.950857a259.693714 259.693714 0 0 1-54.217143 30.226286zM329.691429 713.856l-0.054858 0.950857c0 19.748571 16.621714 35.748571 37.101715 35.748572a38.034286 38.034286 0 0 0 19.693714-5.467429 260.260571 260.260571 0 0 1-56.740571-31.232z m407.222857-262.034286l-0.420572 2.651429c-10.276571 61.312-63.926857 108.013714-128.512 108.013714a130.450286 130.450286 0 0 1-94.171428-39.972571l-1.828572-1.993143-1.828571 2.011428a130.450286 130.450286 0 0 1-89.234286 39.862858l-4.937143 0.091428c-65.517714 0-119.771429-48.054857-128.914285-110.646857a233.728 233.728 0 0 0-12.8 76.489143C274.285714 651.392 372.352 731.428571 512 731.428571s237.714286-80.036571 237.714286-203.099428c0-26.788571-4.498286-52.516571-12.8-76.507429z m-189.952 163.163429c8.228571 14.537143-17.408 61.586286-34.834286 61.586286-17.426286 0-44.032-45.348571-34.834286-61.586286 9.197714-16.256 61.44-14.537143 69.668572 0z m61.019428-274.779429c-31.853714 0-60.891429 15.853714-78.116571 41.508572l-2.267429 3.584L512 411.062857l-15.634286-25.801143a93.732571 93.732571 0 0 0-80.347428-45.074285c-51.785143 0-93.714286 41.6-93.714286 92.854857 0 51.254857 41.929143 92.854857 93.714286 92.854857 31.853714 0 60.891429-15.853714 78.116571-41.526857l2.267429-3.565715 15.634285-25.782857 15.634286 25.782857a93.732571 93.732571 0 0 0 80.347429 45.092572c51.785143 0 93.714286-41.6 93.714285-92.854857 0-51.254857-41.929143-92.854857-93.714285-92.854857zM420.571429 402.285714a36.571429 36.571429 0 1 1 0 73.142857 36.571429 36.571429 0 0 1 0-73.142857z m182.857142 0a36.571429 36.571429 0 1 1 0 73.142857 36.571429 36.571429 0 0 1 0-73.142857z m-91.428571-109.714285c-26.806857 0-52.571429 4.388571-76.598857 12.507428A130.230857 130.230857 0 0 1 510.171429 343.588571l1.810285 1.974858 1.846857-1.974858a130.377143 130.377143 0 0 1 74.788572-38.546285A239.670857 239.670857 0 0 0 512 292.571429z m-217.819429-16.658286l0.292572 1.243428c2.011429 7.625143 5.376 17.042286 10.093714 27.977143l2.102857 4.754286 6.016 12.8 6.180572 12.269714c4.333714-4.260571 8.795429-8.374857 13.403428-12.342857l21.741715-21.76-11.209143-5.650286c-19.382857-9.508571-35.218286-15.780571-47.067429-18.889142l-1.554286-0.402286z m434.761143 0.347428l-2.194285 0.585143c-8.100571 2.267429-18.139429 6.034286-29.769143 11.264l-5.083429 2.340572-9.837714 4.754285-10.624 5.394286 35.2 34.157714 0.237714-0.457142c11.044571-22.966857 18.194286-41.545143 21.485714-55.296l0.585143-2.742858z" p-id="5231"></path></svg>