<?xml version="1.0" standalone="no"?><!DOCTYPE svg PUBLIC "-//W3C//DTD SVG 1.1//EN" "http://www.w3.org/Graphics/SVG/1.1/DTD/svg11.dtd"><svg t="1646399889141" class="icon" viewBox="0 0 1024 1024" version="1.1" xmlns="http://www.w3.org/2000/svg" p-id="6690" xmlns:xlink="http://www.w3.org/1999/xlink" width="200" height="200"><defs><style type="text/css"></style></defs><path d="M916.3 874.4c-27-147.9-133.3-268-273.2-314.7 69.9-43.2 116.5-120.5 116.5-208.8 0-135.4-109.8-245.2-245.2-245.2S269.1 215.4 269.1 350.8c0 87.9 46.2 165 115.7 208.3C244.3 605.3 136.9 725.2 109.4 873c-1 3-0.6 6.2-0.7 9.6v0.2c0 17.1 14.7 35.9 34.8 35.9h739.1c19.3 0 34.9-15.6 34.9-34.9 0-0.8-0.7-7.3-1.2-9.4zM326.1 350.6c0-103.6 84-187.5 187.5-187.5s187.5 84 187.5 187.5-84 187.5-187.5 187.5-187.5-84-187.5-187.5z m-152.8 509c39.3-151 176.6-262.5 339.9-262.5s300.6 111.5 339.9 262.5H173.3z" fill="#282828" p-id="6691"></path></svg>